<?xml version="1.0" encoding="UTF-8"?>
<!DOCTYPE svg PUBLIC "-//W3C//DTD SVG 1.1//EN" "http://www.w3.org/Graphics/SVG/1.1/DTD/svg11.dtd">
<svg xmlns="http://www.w3.org/2000/svg" version="1.1" width="320px" height="320px" style="shape-rendering:geometricPrecision; text-rendering:geometricPrecision; image-rendering:optimizeQuality; fill-rule:evenodd; clip-rule:evenodd" xmlns:xlink="http://www.w3.org/1999/xlink">
<g><path style="opacity:1" fill="#fdfdfd" d="M -0.5,-0.5 C 48.8333,-0.5 98.1667,-0.5 147.5,-0.5C 87.3708,6.6439 43.2041,36.9772 15,90.5C 7.24922,108.234 2.08255,126.567 -0.5,145.5C -0.5,96.8333 -0.5,48.1667 -0.5,-0.5 Z"/></g>
<g><path style="opacity:1" fill="#010101" d="M 147.5,-0.5 C 156.833,-0.5 166.167,-0.5 175.5,-0.5C 257.172,13.8391 305.172,61.8391 319.5,143.5C 319.5,153.167 319.5,162.833 319.5,172.5C 313.942,220.796 291.942,259.63 253.5,289C 251.557,290.555 249.39,291.722 247,292.5C 245.739,292.241 244.739,291.574 244,290.5C 202.667,227.833 161.333,165.167 120,102.5C 113.371,98.5063 106.704,98.5063 100,102.5C 99.5001,116.163 99.3334,129.829 99.5,143.5C 98.8334,158.163 98.5001,172.996 98.5,188C 98.5006,203.182 99.1673,218.015 100.5,232.5C 104.876,234.534 109.543,235.034 114.5,234C 116.492,233.426 117.992,232.259 119,230.5C 119.333,199.5 119.667,168.5 120,137.5C 156.418,192.748 194.584,246.748 234.5,299.5C 225.456,305.851 215.456,310.351 204.5,313C 194.72,315.314 185.053,317.481 175.5,319.5C 167.167,319.5 158.833,319.5 150.5,319.5C 86.7087,313.207 40.8754,281.207 13,223.5C 6.4462,207.606 1.9462,191.273 -0.5,174.5C -0.5,164.833 -0.5,155.167 -0.5,145.5C 2.08255,126.567 7.24922,108.234 15,90.5C 43.2041,36.9772 87.3708,6.6439 147.5,-0.5 Z"/></g>
<g><path style="opacity:1" fill="#fdfdfd" d="M 175.5,-0.5 C 223.5,-0.5 271.5,-0.5 319.5,-0.5C 319.5,47.5 319.5,95.5 319.5,143.5C 305.172,61.8391 257.172,13.8391 175.5,-0.5 Z"/></g>
<g><path style="opacity:1" fill="#fcfcfc" d="M 217.5,99.5 C 217.832,137.337 217.498,175.004 216.5,212.5C 210.592,203.024 204.425,193.69 198,184.5C 197.833,170.5 197.667,156.5 197.5,142.5C 197.357,127.435 197.857,112.435 199,97.5C 199.75,96.8742 200.584,96.3742 201.5,96C 206.167,95.3333 210.833,95.3333 215.5,96C 216.823,96.8159 217.489,97.9826 217.5,99.5 Z"/></g>
<g><path style="opacity:1" fill="#fcfcfc" d="M 319.5,172.5 C 319.5,221.5 319.5,270.5 319.5,319.5C 271.5,319.5 223.5,319.5 175.5,319.5C 185.053,317.481 194.72,315.314 204.5,313C 215.456,310.351 225.456,305.851 234.5,299.5C 194.584,246.748 156.418,192.748 120,137.5C 119.667,168.5 119.333,199.5 119,230.5C 117.992,232.259 116.492,233.426 114.5,234C 109.543,235.034 104.876,234.534 100.5,232.5C 99.5084,202.907 99.1751,173.24 99.5,143.5C 99.3334,129.829 99.5001,116.163 100,102.5C 106.704,98.5063 113.371,98.5063 120,102.5C 161.333,165.167 202.667,227.833 244,290.5C 244.739,291.574 245.739,292.241 247,292.5C 249.39,291.722 251.557,290.555 253.5,289C 291.942,259.63 313.942,220.796 319.5,172.5 Z"/></g>
<g><path style="opacity:1" fill="#e5e5e5" d="M 217.5,99.5 C 218.664,137.664 218.831,175.998 218,214.5C 217.283,213.956 216.783,213.289 216.5,212.5C 217.498,175.004 217.832,137.337 217.5,99.5 Z"/></g>
<g><path style="opacity:1" fill="#fdfdfd" d="M -0.5,174.5 C 1.9462,191.273 6.4462,207.606 13,223.5C 40.8754,281.207 86.7087,313.207 150.5,319.5C 100.167,319.5 49.8333,319.5 -0.5,319.5C -0.5,271.167 -0.5,222.833 -0.5,174.5 Z"/></g>
<g><path style="opacity:1" fill="#4b4b4b" d="M 99.5,143.5 C 99.1751,173.24 99.5084,202.907 100.5,232.5C 99.1673,218.015 98.5006,203.182 98.5,188C 98.5001,172.996 98.8334,158.163 99.5,143.5 Z"/></g>
</svg>
