<?xml version="1.0" encoding="UTF-8"?>
<!DOCTYPE svg PUBLIC "-//W3C//DTD SVG 1.1//EN" "http://www.w3.org/Graphics/SVG/1.1/DTD/svg11.dtd">
<svg xmlns="http://www.w3.org/2000/svg" version="1.1" width="180px" height="110px" style="shape-rendering:geometricPrecision; text-rendering:geometricPrecision; image-rendering:optimizeQuality; fill-rule:evenodd; clip-rule:evenodd" xmlns:xlink="http://www.w3.org/1999/xlink">
<g><path style="opacity:0.978" fill="#38bdf8" d="M 78.5,-0.5 C 86.1667,-0.5 93.8333,-0.5 101.5,-0.5C 106.175,1.00876 110.841,2.84209 115.5,5C 124.13,11.9612 132.463,19.2945 140.5,27C 148.501,32.0005 156.834,32.6672 165.5,29C 170.622,25.7102 175.289,21.8769 179.5,17.5C 179.5,18.8333 179.5,20.1667 179.5,21.5C 174.43,38.736 163.097,49.236 145.5,53C 132.634,54.8594 120.3,53.1927 108.5,48C 99.87,41.0388 91.5367,33.7055 83.5,26C 68.1563,18.4395 55.323,21.6061 45,35.5C 48.0441,15.9555 59.2107,3.9555 78.5,-0.5 Z"/></g>
<g><path style="opacity:0.978" fill="#38bdf8" d="M -0.5,89.5 C -0.5,88.1667 -0.5,86.8333 -0.5,85.5C 9.49595,59.4882 28.4959,48.9882 56.5,54C 63.929,55.3825 70.5956,58.3825 76.5,63C 82.531,69.3655 88.8643,75.3655 95.5,81C 110.844,88.5605 123.677,85.3939 134,71.5C 131.112,91.0566 119.946,102.89 100.5,107C 84.8294,109.867 70.4961,106.867 57.5,98C 51.469,91.6345 45.1357,85.6345 38.5,80C 30.4988,74.9995 22.1655,74.3328 13.5,78C 8.37783,81.2898 3.71116,85.1231 -0.5,89.5 Z"/></g>
</svg>
